<?xml version="1.0" encoding="UTF-8"?>
<svg width="296px" height="21px" viewBox="0 0 296 21" version="1.1" xmlns="http://www.w3.org/2000/svg" xmlns:xlink="http://www.w3.org/1999/xlink">
    <!-- Generator: Sketch 51.3 (57544) - http://www.bohemiancoding.com/sketch -->
    <title>logos-social</title>
    <desc>Created with Sketch.</desc>
    <defs></defs>
    <g id="Page-1" stroke="none" stroke-width="1" fill="none" fill-rule="evenodd">
        <g id="logos-social" fill="#FFFFFF">
            <path d="M22.5919,8.851 C22.5919,7.3188 21.3498,6.0767 19.8176,6.0767 C19.0502,6.0767 18.357,6.3896 17.8549,6.8932 C16.3035,5.8926 14.3214,5.2549 12.1446,5.1554 C12.1459,4.2311 12.5599,3.3695 13.281,2.7911 C14.0033,2.2116 14.9363,1.9946 15.8399,2.1953 L15.9641,2.2229 C15.9628,2.254 15.9594,2.2845 15.9594,2.3159 C15.9594,3.5949 16.9962,4.6317 18.2753,4.6317 C19.5543,4.6317 20.5911,3.5949 20.5911,2.3159 C20.5911,1.0368 19.5543,0 18.2753,0 C17.4528,0 16.7324,0.4299 16.3215,1.076 L16.0996,1.0267 C14.8395,0.7467 13.5389,1.0494 12.5319,1.8573 C11.5261,2.6642 10.9488,3.8661 10.9475,5.1554 C8.7712,5.2549 6.7895,5.8922 5.2382,6.8924 C4.736,6.3886 4.0418,6.0767 3.2743,6.0767 C1.7421,6.0767 0.5,7.3188 0.5,8.851 C0.5,9.9185 1.1041,10.8434 1.9882,11.3072 C1.921,11.6506 1.8857,12.0018 1.8857,12.3592 C1.8857,16.3455 6.2107,19.5771 11.5459,19.5771 C16.8811,19.5771 21.2062,16.3455 21.2062,12.3592 C21.2062,12.002 21.1708,11.651 21.1038,11.3077 C21.9879,10.8438 22.5919,9.9186 22.5919,8.851 Z M18.2753,1.1971 C18.8922,1.1971 19.3941,1.699 19.3941,2.3159 C19.3941,2.9328 18.8922,3.4347 18.2753,3.4347 C17.6583,3.4347 17.1564,2.9328 17.1564,2.3159 C17.1564,1.699 17.6584,1.1971 18.2753,1.1971 Z M1.6971,8.851 C1.6971,7.9813 2.4046,7.2738 3.2743,7.2738 C3.6467,7.2738 3.9886,7.4043 4.2584,7.6212 C3.4146,8.3451 2.7614,9.196 2.3558,10.1303 C1.9575,9.8442 1.6971,9.3779 1.6971,8.851 Z M17.6603,16.504 C16.0412,17.7137 13.8698,18.3799 11.546,18.3799 C9.2222,18.3799 7.0507,17.7137 5.4317,16.504 C3.917,15.3723 3.0828,13.9003 3.0828,12.3592 C3.0828,10.818 3.917,9.346 5.4317,8.2143 C7.0507,7.0046 9.2222,6.3383 11.546,6.3383 C13.8698,6.3383 16.0412,7.0046 17.6603,8.2143 C19.1749,9.346 20.0091,10.818 20.0091,12.3592 C20.0091,13.9003 19.1749,15.3723 17.6603,16.504 Z M20.7357,10.1296 C20.3301,9.1954 19.6769,8.3448 18.8333,7.621 C19.103,7.404 19.4451,7.2738 19.8176,7.2738 C20.6873,7.2738 21.3948,7.9813 21.3948,8.851 C21.3948,9.3779 21.1341,9.8436 20.7357,10.1296 Z" id="Shape" fill-rule="nonzero"></path>
            <path d="M8.0176,11.937 C8.7152,11.937 9.2807,11.3715 9.2807,10.6738 C9.2807,9.9762 8.7152,9.4106 8.0176,9.4106 C7.3199,9.4106 6.7544,9.9762 6.7544,10.6738 C6.7544,11.3715 7.3199,11.937 8.0176,11.937 Z" id="Shape" fill-rule="nonzero"></path>
            <path d="M15.0742,11.937 C15.7718,11.937 16.3374,11.3715 16.3374,10.6738 C16.3374,9.9762 15.7718,9.4106 15.0742,9.4106 C14.3766,9.4106 13.811,9.9762 13.811,10.6738 C13.811,11.3715 14.3766,11.937 15.0742,11.937 Z" id="Shape" fill-rule="nonzero"></path>
            <path d="M14.5392,13.743 C13.6487,14.5543 12.4944,15.001 11.2887,15.001 C9.935,15.001 8.6807,14.4555 7.757,13.4648 C7.5316,13.223 7.1528,13.2098 6.9111,13.4353 C6.6693,13.6606 6.6561,14.0394 6.8815,14.2812 C8.0174,15.4994 9.6238,16.1981 11.2888,16.1981 C12.7934,16.1981 14.234,15.6404 15.3454,14.6278 C15.5897,14.4052 15.6074,14.0266 15.3847,13.7823 C15.1622,13.5381 14.7838,13.5202 14.5392,13.743 Z" id="Shape" fill-rule="nonzero"></path>
            <path d="M57.9112,12.9238 L57.9112,20.25 L54.5459,20.25 L54.5459,12.9238 L51.75,12.9238 L51.75,9.9532 L54.5459,9.9532 L54.5459,8.8724 C54.5459,4.8598 56.2221,2.75 59.7687,2.75 C60.856,2.75 61.1278,2.9247 61.7232,3.0671 L61.7232,6.0054 C61.0566,5.8889 60.8689,5.8241 60.1764,5.8241 C59.3545,5.8241 58.9144,6.0571 58.5131,6.5166 C58.1119,6.9761 57.9112,7.7722 57.9112,8.9112 L57.9112,9.9597 L61.7232,9.9597 L60.7006,12.9303 L57.9112,12.9303 L57.9112,12.9238 Z" id="Shape" fill-rule="nonzero"></path>
            <path d="M107.243,19 L97.257,19 C95.877,19 94.75,17.8727 94.75,16.4928 L94.75,6.5072 C94.75,5.1273 95.877,4 97.257,4 L107.243,4 C108.623,4 109.75,5.1273 109.75,6.5072 L109.75,16.4928 C109.75,17.8789 108.629,19 107.243,19 Z M106.853,7.5265 C107.262,7.5265 107.593,7.1955 107.593,6.7872 C107.593,6.3789 107.262,6.048 106.853,6.048 C106.445,6.048 106.114,6.3789 106.114,6.7872 C106.114,7.1955 106.445,7.5265 106.853,7.5265 Z M102.253,15.3532 C103.282,15.3532 104.243,14.9528 104.976,14.2259 C105.703,13.499 106.103,12.5318 106.103,11.5031 C106.103,10.4743 105.703,9.5072 104.976,8.7803 C104.249,8.0534 103.282,7.653 102.253,7.653 C101.224,7.653 100.257,8.0534 99.53,8.7803 C98.803,9.5072 98.403,10.4743 98.403,11.5031 C98.403,12.5318 98.803,13.499 99.53,14.2259 C100.257,14.9528 101.224,15.3532 102.253,15.3532 Z M102.253,8.4723 C103.922,8.4723 105.278,9.8337 105.284,11.5031 C105.284,13.1787 103.922,14.5339 102.253,14.5339 C100.577,14.5339 99.222,13.1725 99.222,11.5031 C99.222,9.8275 100.584,8.4723 102.253,8.4723 Z" id="Combined-Shape" fill-rule="nonzero"></path>
            <path d="M156.168,15.9921 C156.104,15.9664 156.046,15.9471 155.995,15.9213 C154.548,15.1238 153.57,14.1204 153.004,12.8598 C152.676,12.1265 152.792,11.702 153.416,11.3869 C153.776,11.2068 154.142,10.9559 154.561,10.6086 C154.76,10.4414 155.178,10.1005 154.908,9.5924 C154.631,9.0843 154.155,9.155 153.821,9.2515 C153.544,9.3351 153.274,9.4252 153.03,9.5345 C152.837,9.6181 152.708,9.6374 152.644,9.5924 C152.579,9.5474 152.554,9.4187 152.567,9.2129 C152.605,8.6212 152.599,8.0294 152.586,7.3734 C152.554,5.3023 151.48,3.7329 149.647,3.0705 C147.653,2.3501 145.402,2.8711 144.044,4.3633 C143.028,5.4824 142.932,6.7945 142.977,8.0423 C142.977,8.2031 142.996,8.3768 143.015,8.5504 C143.054,8.9106 143.092,9.2837 142.945,9.483 C142.764,9.7146 142.539,9.6181 142.192,9.438 C142.025,9.3544 141.858,9.2644 141.684,9.2386 C141.298,9.1743 140.906,9.1486 140.661,9.5731 C140.391,10.0426 140.713,10.3835 140.976,10.5958 C141.247,10.8144 141.542,11.0074 141.832,11.1939 C141.922,11.2518 142.018,11.3161 142.108,11.374 C142.867,11.8757 142.919,12.0622 142.539,12.8984 C142.07,13.9403 141.298,14.8022 140.115,15.6062 C139.999,15.6834 139.838,15.7477 139.684,15.8056 C139.336,15.9406 138.937,16.1014 139.008,16.4809 C139.092,16.9183 139.619,17.0534 140.082,17.1691 C140.192,17.1949 140.301,17.2206 140.398,17.2527 C140.455,17.272 140.52,17.2849 140.578,17.3042 C140.925,17.3942 141.259,17.4779 141.298,17.8959 C141.362,18.5456 141.832,18.6163 142.237,18.597 C143.298,18.5584 144.334,18.8671 145.492,19.5682 C146.244,20.0249 147.016,20.25 147.781,20.25 C148.502,20.25 149.216,20.0506 149.904,19.6518 C150.862,19.0987 152.033,18.5327 153.441,18.5906 C153.924,18.6099 154.2,18.3976 154.232,17.9924 C154.265,17.5679 154.535,17.4457 154.921,17.3235 C155.024,17.2913 155.127,17.2592 155.229,17.227 C155.461,17.1563 155.705,17.0855 155.93,16.9826 C155.976,16.9633 156.027,16.944 156.085,16.9247 C156.304,16.8475 156.58,16.7511 156.593,16.4359 C156.606,16.1465 156.355,16.0564 156.168,15.9921 Z" id="Shape" fill-rule="nonzero"></path>
            <path d="M196.897,3.4157 L196.475,2.75 L193.92,2.75 L193.92,8.7458 L193.911,14.6023 C193.916,14.6458 193.92,14.6937 193.92,14.7372 C193.92,16.2035 192.727,17.4001 191.256,17.4001 C189.785,17.4001 188.592,16.2079 188.592,14.7372 C188.592,13.2709 189.785,12.0743 191.256,12.0743 C191.561,12.0743 191.857,12.1309 192.131,12.2266 L192.131,9.3027 C191.848,9.2548 191.557,9.2287 191.256,9.2287 C188.222,9.2331 185.75,11.7045 185.75,14.7415 C185.75,17.7786 188.222,20.25 191.261,20.25 C194.299,20.25 196.771,17.7786 196.771,14.7415 L196.771,7.7755 C197.872,8.8763 199.296,9.951 200.871,10.2948 L200.871,7.3056 C199.161,6.5485 197.459,4.312 196.897,3.4157 Z" id="Shape" fill-rule="nonzero"></path>
            <path d="M235.422,3.5 L229.75,3.5 L236.475,12.3369 L230.18,19.75 L233.089,19.75 L237.85,14.1433 L242.078,19.6985 L247.75,19.6985 L240.829,10.6048 L240.842,10.6205 L246.8,3.6032 L243.892,3.6032 L239.467,8.8143 L235.422,3.5 Z M232.881,5.0476 L234.647,5.0476 L244.619,18.1508 L242.853,18.1508 L232.881,5.0476 Z" id="Shape"></path>
            <path d="M289.581,18 C289.581,18 288.93,17.2322 288.388,16.5536 C290.756,15.8929 291.66,14.4286 291.66,14.4286 C290.919,14.9107 290.214,15.25 289.581,15.4822 C288.677,15.8572 287.81,16.1072 286.96,16.25 C285.225,16.5714 283.634,16.4822 282.279,16.2322 C281.248,16.0357 280.363,15.75 279.622,15.4643 C279.206,15.3036 278.754,15.1072 278.302,14.8572 C278.275,14.8393 278.248,14.8259 278.221,14.8125 C278.194,14.7991 278.166,14.7857 278.139,14.7679 C278.103,14.75 278.085,14.7322 278.067,14.7143 C277.742,14.5357 277.561,14.4107 277.561,14.4107 C277.561,14.4107 278.429,15.8393 280.724,16.5179 C280.182,17.1964 279.513,18 279.513,18 C275.518,17.875 274,15.2857 274,15.2857 C274,9.5358 276.603,4.8751 276.603,4.8751 C279.206,2.9466 281.682,3.0001 281.682,3.0001 L281.863,3.2144 C278.609,4.143 277.109,5.5537 277.109,5.5537 C277.109,5.5537 277.507,5.3394 278.175,5.0358 C280.11,4.1966 281.646,3.9644 282.279,3.9109 L282.319,3.9041 C282.41,3.8887 282.491,3.8751 282.586,3.8751 C283.689,3.7323 284.936,3.6966 286.237,3.8394 C287.954,4.0359 289.798,4.5358 291.678,5.5537 C291.678,5.5537 290.25,4.2144 287.177,3.2859 L287.43,3.0001 C287.43,3.0001 289.907,2.9466 292.509,4.8751 C292.509,4.8751 295.112,9.5358 295.112,15.2857 C295.112,15.2857 293.576,17.875 289.581,18 Z M281.685,9.9847 C280.663,9.9847 279.856,10.904 279.856,12.0255 C279.856,13.147 280.681,14.0663 281.685,14.0663 C282.707,14.0663 283.514,13.147 283.514,12.0255 C283.532,10.904 282.707,9.9847 281.685,9.9847 Z M286.401,12.0255 C286.401,10.904 287.208,9.9847 288.23,9.9847 C289.252,9.9847 290.059,10.904 290.059,12.0255 C290.059,13.147 289.252,14.0663 288.23,14.0663 C287.226,14.0663 286.401,13.147 286.401,12.0255 Z" id="Shape"></path>
        </g>
    </g>
</svg>